<svg width="20" height="20" viewBox="0 0 20 20" fill="none" xmlns="http://www.w3.org/2000/svg">
<path d="M0 6C0 2.68629 2.68629 0 6 0H14C17.3137 0 20 2.68629 20 6V14C20 17.3137 17.3137 20 14 20H6C2.68629 20 0 17.3137 0 14V6Z" fill="#88E64A"/>
<path d="M15.1335 9.9989L9.82778 9.98796L10.5214 8.79561C11.7597 6.67845 14.0577 5.36762 16.5498 5.37291L16.5517 4.49563L10.4813 4.4828C8.50699 4.47865 6.6783 5.5959 5.81076 7.37235L4.52208 10.0012L9.82778 10.0125L9.13414 11.2048C7.8959 13.322 5.59789 14.6328 3.10536 14.6275L3.10345 15.5044L9.17426 15.5173C11.1486 15.5214 12.9769 14.4045 13.8444 12.6277L15.1335 9.9989Z" fill="#1B4200"/>
</svg>
